<?xml version="1.0" encoding="utf-8"?>
<svg version="1.1" xmlns:xlink="http://www.w3.org/1999/xlink" width="25px" height="43px" xmlns="http://www.w3.org/2000/svg">
  <g transform="matrix(1 0 0 1 -742 -128 )">
    <path d="M 24.3815104166667 0.671875  C 24.7938368055556 1.11979166666666  25 1.65021929824561  25 2.26315789473684  L 25 40.7368421052632  C 25 41.3497807017544  24.7938368055556 41.8802083333333  24.3815104166667 42.328125  C 23.9691840277778 42.7760416666667  23.4809027777778 43  22.9166666666667 43  C 22.3524305555556 43  21.8641493055556 42.7760416666667  21.4518229166667 42.328125  L 10.6119791666667 30.5526315789474  L 2.08333333333333 30.5526315789474  C 1.51909722222222 30.5526315789474  1.03081597222222 30.328673245614  0.618489583333333 29.8807565789474  C 0.206163194444444 29.4328399122807  0 28.9024122807018  0 28.2894736842105  L 0 14.7105263157895  C 0 14.0975877192982  0.206163194444444 13.5671600877193  0.618489583333333 13.1192434210526  C 1.03081597222222 12.671326754386  1.51909722222222 12.4473684210526  2.08333333333333 12.4473684210526  L 10.6119791666667 12.4473684210526  L 21.4518229166667 0.671875  C 21.8641493055556 0.22395833333333  22.3524305555556 0  22.9166666666667 0  C 23.4809027777778 0  23.9691840277778 0.22395833333333  24.3815104166667 0.671875  Z " fill-rule="nonzero" fill="#afafaf" stroke="none" transform="matrix(1 0 0 1 742 128 )" />
  </g>
</svg>