<?xml version="1.0" encoding="utf-8"?>
<svg version="1.1" xmlns:xlink="http://www.w3.org/1999/xlink" width="43px" height="43px" xmlns="http://www.w3.org/2000/svg">
  <g transform="matrix(1 0 0 1 -1053 -128 )">
    <path d="M 19.3551682692308 3.68917018284107  C 19.6824919871795 4.07219878105954  19.8461538461538 4.52578527894983  20 5.04992967651195  L 20 37.950070323488  C 19.8461538461538 38.4742147210502  19.6824919871795 38.9278012189405  19.3551682692308 39.3108298171589  C 19.0278445512821 39.6938584153774  18.6402243589744 39.8853727144866  18.1923076923077 39.8853727144866  C 17.744391025641 39.8853727144866  17.3567708333333 39.6938584153774  17.0294471153846 39.3108298171589  L 8.42427884615385 29.2412095639944  L 1.65384615384615 29.2412095639944  C 1.20592948717949 29.2412095639944  0.818309294871795 29.0496952648851  0.490985576923077 28.6666666666667  C 0.163661858974359 28.2836380684482  0 27.8300515705579  0 27.3059071729958  L 0 15.6940928270042  C 0 15.1699484294421  0.163661858974359 14.7163619315518  0.490985576923077 14.3333333333333  C 0.818309294871795 13.9503047351149  1.20592948717949 13.7587904360056  1.65384615384615 13.7587904360056  L 8.42427884615385 13.7587904360056  L 17.0294471153846 3.68917018284107  C 17.3567708333333 3.3061415846226  17.744391025641 3.11462728551336  18.1923076923077 3.11462728551336  C 18.6402243589744 3.11462728551336  19.0278445512821 3.3061415846226  19.3551682692308 3.68917018284107  Z M 28.6709735576923 17.2060478199719  C 29.4031450320513 18.5365682137834  29.7692307692308 19.9678856071261  29.7692307692308 21.5  C 29.7692307692308 23.0321143928739  29.4031450320513 24.45839193624  28.6709735576923 25.7788326300985  C 27.9388020833333 27.0992733239569  26.9697516025641 28.0417252695734  25.7638221153846 28.606188466948  C 25.591546474359 28.7069854664791  25.3762019230769 28.7573839662447  25.1177884615385 28.7573839662447  C 24.6698717948718 28.7573839662447  24.2822516025641 28.570909517112  23.9549278846154 28.1979606188467  C 23.6276041666667 27.8250117205813  23.4639423076923 27.3663853727145  23.4639423076923 26.8220815752461  C 23.4639423076923 26.3987341772152  23.5673076923077 26.0409048288795  23.7740384615385 25.7485935302391  C 23.9807692307692 25.4562822315987  24.2305689102564 25.2042897327707  24.5234375 24.9926160337553  C 24.8163060897436 24.7809423347398  25.1091746794872 24.5491092358181  25.4020432692308 24.2971167369902  C 25.6949118589744 24.0451242381622  25.9447115384615 23.68225503985  26.1514423076923 23.2085091420534  C 26.3581730769231 22.7347632442569  26.4615384615385 22.1652601969058  26.4615384615385 21.5  C 26.4615384615385 20.8347398030942  26.3581730769231 20.2652367557431  26.1514423076923 19.7914908579466  C 25.9447115384615 19.31774496015  25.6949118589744 18.9548757618378  25.4020432692308 18.7028832630098  C 25.1091746794872 18.4508907641819  24.8163060897436 18.2190576652602  24.5234375 18.0073839662447  C 24.2305689102564 17.7957102672293  23.9807692307692 17.5437177684013  23.7740384615385 17.2514064697609  C 23.5673076923077 16.9590951711205  23.4639423076923 16.6012658227848  23.4639423076923 16.1779184247539  C 23.4639423076923 15.6336146272855  23.6276041666667 15.1749882794187  23.9549278846154 14.8020393811533  C 24.2822516025641 14.429090482888  24.6698717948718 14.2426160337553  25.1177884615385 14.2426160337553  C 25.3762019230769 14.2426160337553  25.591546474359 14.2930145335209  25.7638221153846 14.393811533052  C 26.9697516025641 14.9381153305204  27.9388020833333 15.8755274261603  28.6709735576923 17.2060478199719  Z M 34.1881009615385 12.9574542897328  C 35.6524439102564 15.5680965775902  36.3846153846154 18.415611814346  36.3846153846154 21.5  C 36.3846153846154 24.584388185654  35.6524439102564 27.4319034224097  34.1881009615385 30.0425457102672  C 32.7237580128205 32.6531879981247  30.7856570512821 34.5532114392874  28.3737980769231 35.7426160337553  C 28.1498397435897 35.8434130332864  27.9344951923077 35.893811533052  27.7277644230769 35.893811533052  C 27.2626201923077 35.893811533052  26.8663862179487 35.7022972339428  26.5390625 35.3192686357243  C 26.2117387820513 34.9362400375059  26.0480769230769 34.4826535396156  26.0480769230769 33.9585091420534  C 26.0480769230769 33.1722925457103  26.3840144230769 32.5775902484763  27.0558894230769 32.1744022503516  C 28.0206330128205 31.5897796530708  28.6752804487179 31.1462728551336  29.0198317307692 30.8438818565401  C 30.294671474359 29.7552742616034  31.2895633012821 28.3894749179559  32.0045072115385 26.7464838255977  C 32.7194511217949 25.1034927332396  33.0769230769231 23.3546647913737  33.0769230769231 21.5  C 33.0769230769231 19.6453352086263  32.7194511217949 17.8965072667604  32.0045072115385 16.2535161744022  C 31.2895633012821 14.6105250820441  30.294671474359 13.2447257383966  29.0198317307692 12.1561181434599  C 28.6752804487179 11.8537271448664  28.0206330128205 11.4102203469292  27.0558894230769 10.8255977496484  C 26.3840144230769 10.4224097515237  26.0480769230769 9.82770745428973  26.0480769230769 9.04149085794655  C 26.0480769230769 8.51734646038443  26.2117387820513 8.06375996249414  26.5390625 7.68073136427567  C 26.8663862179487 7.2977027660572  27.2540064102564 7.10618846694796  27.7019230769231 7.10618846694796  C 27.9258814102564 7.10618846694796  28.1498397435897 7.15658696671354  28.3737980769231 7.25738396624473  C 30.7856570512821 8.44678856071261  32.7237580128205 10.3468120018753  34.1881009615385 12.9574542897328  Z M 39.7181490384615 8.72398030942335  C 41.9060496794872 12.6046647913737  43 16.8633380215659  43 21.5  C 43 26.1366619784341  41.9060496794872 30.3953352086263  39.7181490384615 34.2760196905767  C 37.5302483974359 38.156704172527  34.6187900641026 41.0142991092358  30.9837740384615 42.8488045007032  C 30.7598157051282 42.9496015002344  30.5358573717949 43  30.3118990384615 43  C 29.8639823717949 43  29.4763621794872 42.8084857008908  29.1490384615385 42.4254571026723  C 28.8217147435897 42.0424285044538  28.6580528846154 41.5888420065635  28.6580528846154 41.0646976090014  C 28.6580528846154 40.3389592123769  28.9939903846154 39.744256915143  29.6658653846154 39.2805907172996  C 29.7864583333333 39.1999531176746  29.9802684294872 39.0941162681669  30.2472956730769 38.9630801687764  C 30.5143229166667 38.8320440693858  30.7081330128205 38.7262072198781  30.8287259615385 38.6455696202532  C 31.6211939102564 38.1415846225973  32.3275240384615 37.6275199249883  32.9477163461538 37.1033755274262  C 35.0667067307692 35.2688701359587  36.7205528846154 32.980778246601  37.9092548076923 30.239099859353  C 39.0979567307692 27.497421472105  39.6923076923077 24.584388185654  39.6923076923077 21.5  C 39.6923076923077 18.415611814346  39.0979567307692 15.502578527895  37.9092548076923 12.760900140647  C 36.7205528846154 10.019221753399  35.0667067307692 7.73112986404125  32.9477163461538 5.89662447257384  C 32.3275240384615 5.37248007501172  31.6211939102564 4.85841537740272  30.8287259615385 4.35443037974683  C 30.7081330128205 4.27379278012189  30.5143229166667 4.16795593061415  30.2472956730769 4.03691983122363  C 29.9802684294872 3.90588373183309  29.7864583333333 3.80004688232536  29.6658653846154 3.71940928270042  C 28.9939903846154 3.255743084857  28.6580528846154 2.66104078762306  28.6580528846154 1.9353023909986  C 28.6580528846154 1.41115799343647  28.8217147435897 0.957571495546175  29.1490384615385 0.574542897327707  C 29.4763621794872 0.191514299109234  29.8639823717949 0  30.3118990384615 0  C 30.5358573717949 0  30.7598157051282 0.0503984997655856  30.9837740384615 0.151195499296766  C 34.6187900641026 1.98570089076418  37.5302483974359 4.84329582747304  39.7181490384615 8.72398030942335  Z " fill-rule="nonzero" fill="#333333" stroke="none" transform="matrix(1 0 0 1 1053 128 )" />
  </g>
</svg>