<?xml version="1.0" encoding="utf-8"?>
<svg version="1.1" xmlns:xlink="http://www.w3.org/1999/xlink" width="32px" height="26px" xmlns="http://www.w3.org/2000/svg">
  <g transform="matrix(1 0 0 1 -521 -54 )">
    <path d="M 19.7708333333333 16.0638020833333  C 20.8125 15.2174479166667  21.3333333333333 14.1961805555556  21.3333333333333 13  C 21.3333333333333 11.8038194444444  20.8125 10.7825520833333  19.7708333333333 9.93619791666667  C 18.7291666666667 9.08984375  17.4722222222222 8.66666666666667  16 8.66666666666667  C 14.5277777777778 8.66666666666667  13.2708333333333 9.08984375  12.2291666666667 9.93619791666667  C 11.1875 10.7825520833333  10.6666666666667 11.8038194444444  10.6666666666667 13  C 10.6666666666667 14.1961805555556  11.1875 15.2174479166667  12.2291666666667 16.0638020833333  C 13.2708333333333 16.91015625  14.5277777777778 17.3333333333333  16 17.3333333333333  C 17.4722222222222 17.3333333333333  18.7291666666667 16.91015625  19.7708333333333 16.0638020833333  Z M 31.8333333333333 10.7571614583333  C 31.9444444444444 10.8756510416667  32 11.0082465277778  32 11.1549479166667  L 32 14.9127604166667  C 32 15.0481770833333  31.9444444444444 15.1779513888889  31.8333333333333 15.3020833333333  C 31.7222222222222 15.4262152777778  31.5833333333333 15.4995659722222  31.4166666666667 15.5221354166667  L 27.5625 15.99609375  C 27.2986111111111 16.60546875  27.0277777777778 17.1189236111111  26.75 17.5364583333333  C 27.2361111111111 18.1006944444444  27.9791666666667 18.8793402777778  28.9791666666667 19.8723958333333  C 29.1180555555556 20.0078125  29.1875 20.1488715277778  29.1875 20.2955729166667  C 29.1875 20.4422743055556  29.125 20.5720486111111  29 20.6848958333333  C 28.625 21.1024305555556  27.9375 21.7118055555556  26.9375 22.5130208333333  C 25.9375 23.3142361111111  25.2847222222222 23.71484375  24.9791666666667 23.71484375  C 24.8125 23.71484375  24.6319444444444 23.6640625  24.4375 23.5625  L 21.5625 21.734375  C 20.9513888888889 21.9939236111111  20.3194444444444 22.2083333333333  19.6666666666667 22.3776041666667  C 19.4444444444444 23.9123263888889  19.2430555555556 24.9618055555556  19.0625 25.5260416666667  C 18.9652777777778 25.8420138888889  18.7152777777778 26  18.3125 26  L 13.6875 26  C 13.4930555555556 26  13.3229166666667 25.9520399305556  13.1770833333333 25.8561197916667  C 13.03125 25.7601996527778  12.9513888888889 25.6388888888889  12.9375 25.4921875  L 12.3541666666667 22.3776041666667  C 11.6736111111111 22.1970486111111  11.0486111111111 21.98828125  10.4791666666667 21.7513020833333  L 7.54166666666667 23.5625  C 7.40277777777778 23.6640625  7.22916666666667 23.71484375  7.02083333333333 23.71484375  C 6.82638888888889 23.71484375  6.65277777777778 23.6527777777778  6.5 23.5286458333333  C 4.75 22.2421875  3.60416666666667 21.2942708333333  3.0625 20.6848958333333  C 2.96527777777778 20.5720486111111  2.91666666666667 20.4422743055556  2.91666666666667 20.2955729166667  C 2.91666666666667 20.16015625  2.97222222222222 20.0303819444444  3.08333333333333 19.90625  C 3.29166666666667 19.6692708333333  3.64583333333333 19.2940538194444  4.14583333333333 18.7805989583333  C 4.64583333333333 18.2671440972222  5.02083333333333 17.8693576388889  5.27083333333333 17.5872395833333  C 4.89583333333333 17.0230034722222  4.61111111111111 16.4644097222222  4.41666666666667 15.9114583333333  L 0.604166666666667 15.4544270833333  C 0.423611111111111 15.4318576388889  0.277777777777778 15.361328125  0.166666666666667 15.2428385416667  C 0.0555555555555556 15.1243489583333  0 14.9917534722222  0 14.8450520833333  L 0 11.0872395833333  C 0 10.9518229166667  0.0555555555555556 10.8220486111111  0.166666666666667 10.6979166666667  C 0.277777777777778 10.5737847222222  0.409722222222222 10.5004340277778  0.5625 10.4778645833333  L 4.4375 10.00390625  C 4.63194444444444 9.48480902777778  4.90277777777778 8.96571180555556  5.25 8.44661458333333  C 4.69444444444444 7.80338541666667  3.95138888888889 7.02473958333333  3.02083333333333 6.11067708333333  C 2.88194444444444 5.97526041666667  2.8125 5.83984375  2.8125 5.70442708333333  C 2.8125 5.59157986111111  2.875 5.46180555555555  3 5.31510416666667  C 3.36111111111111 4.90885416666667  4.04513888888889 4.30230034722222  5.05208333333333 3.49544270833333  C 6.05902777777778 2.68858506944444  6.71527777777778 2.28515625  7.02083333333333 2.28515625  C 7.20138888888889 2.28515625  7.38194444444445 2.34157986111111  7.5625 2.45442708333333  L 10.4375 4.265625  C 11.0486111111111 4.00607638888889  11.6805555555556 3.79166666666667  12.3333333333333 3.62239583333333  C 12.5555555555556 2.08767361111111  12.7569444444444 1.03819444444444  12.9375 0.473958333333332  C 13.0347222222222 0.15798611111111  13.2847222222222 0  13.6875 0  L 18.3125 0  C 18.5069444444444 0  18.6770833333333 0.0479600694444422  18.8229166666667 0.143880208333332  C 18.96875 0.23980034722222  19.0486111111111 0.36111111111111  19.0625 0.5078125  L 19.6458333333333 3.62239583333333  C 20.3263888888889 3.80295138888889  20.9513888888889 4.01171875  21.5208333333333 4.24869791666667  L 24.4791666666667 2.4375  C 24.6041666666667 2.3359375  24.7708333333333 2.28515625  24.9791666666667 2.28515625  C 25.1597222222222 2.28515625  25.3333333333333 2.34157986111111  25.5 2.45442708333333  C 27.2916666666667 3.79730902777778  28.4375 4.75651041666667  28.9375 5.33203125  C 29.0347222222222 5.42230902777778  29.0833333333333 5.54644097222222  29.0833333333333 5.70442708333333  C 29.0833333333333 5.83984375  29.0277777777778 5.96961805555555  28.9166666666667 6.09375  C 28.7083333333333 6.33072916666667  28.3541666666667 6.70594618055555  27.8541666666667 7.21940104166667  C 27.3541666666667 7.73285590277778  26.9791666666667 8.13064236111111  26.7291666666667 8.41276041666667  C 27.0902777777778 8.97699652777778  27.375 9.52994791666666  27.5833333333333 10.0716145833333  L 31.3958333333333 10.5455729166667  C 31.5763888888889 10.5681423611111  31.7222222222222 10.638671875  31.8333333333333 10.7571614583333  Z " fill-rule="nonzero" fill="#616161" stroke="none" transform="matrix(1 0 0 1 521 54 )" />
  </g>
</svg>