<?xml version="1.0" encoding="utf-8"?>
<svg version="1.1" xmlns:xlink="http://www.w3.org/1999/xlink" width="5px" height="40px" xmlns="http://www.w3.org/2000/svg">
  <g transform="matrix(1 0 0 1 -546 -53 )">
    <path d="M 4.63541666666667 29.8863636363636  C 4.87847222222222 30.4166666666667  5 31.0606060606061  5 31.8181818181818  L 5 37.2727272727273  C 5 38.030303030303  4.87847222222222 38.6742424242424  4.63541666666667 39.2045454545455  C 4.39236111111111 39.7348484848485  4.09722222222222 40  3.75 40  L 1.25 40  C 0.902777777777778 40  0.607638888888889 39.7348484848485  0.364583333333333 39.2045454545455  C 0.121527777777778 38.6742424242424  0 38.030303030303  0 37.2727272727273  L 0 31.8181818181818  C 0 31.0606060606061  0.121527777777778 30.4166666666667  0.364583333333333 29.8863636363636  C 0.607638888888889 29.3560606060606  0.902777777777778 29.0909090909091  1.25 29.0909090909091  L 3.75 29.0909090909091  C 4.09722222222222 29.0909090909091  4.39236111111111 29.3560606060606  4.63541666666667 29.8863636363636  Z M 4.63541666666667 15.3409090909091  C 4.87847222222222 15.8712121212121  5 16.5151515151515  5 17.2727272727273  L 5 22.7272727272727  C 5 23.4848484848485  4.87847222222222 24.1287878787879  4.63541666666667 24.6590909090909  C 4.39236111111111 25.1893939393939  4.09722222222222 25.4545454545455  3.75 25.4545454545455  L 1.25 25.4545454545455  C 0.902777777777778 25.4545454545455  0.607638888888889 25.1893939393939  0.364583333333333 24.6590909090909  C 0.121527777777778 24.1287878787879  0 23.4848484848485  0 22.7272727272727  L 0 17.2727272727273  C 0 16.5151515151515  0.121527777777778 15.8712121212121  0.364583333333333 15.3409090909091  C 0.607638888888889 14.8106060606061  0.902777777777778 14.5454545454545  1.25 14.5454545454545  L 3.75 14.5454545454545  C 4.09722222222222 14.5454545454545  4.39236111111111 14.8106060606061  4.63541666666667 15.3409090909091  Z M 4.63541666666667 0.795454545454546  C 4.87847222222222 1.32575757575757  5 1.96969696969697  5 2.72727272727273  L 5 8.18181818181818  C 5 8.93939393939394  4.87847222222222 9.58333333333333  4.63541666666667 10.1136363636364  C 4.39236111111111 10.6439393939394  4.09722222222222 10.9090909090909  3.75 10.9090909090909  L 1.25 10.9090909090909  C 0.902777777777778 10.9090909090909  0.607638888888889 10.6439393939394  0.364583333333333 10.1136363636364  C 0.121527777777778 9.58333333333333  0 8.93939393939394  0 8.18181818181818  L 0 2.72727272727273  C 0 1.96969696969697  0.121527777777778 1.32575757575757  0.364583333333333 0.795454545454546  C 0.607638888888889 0.265151515151514  0.902777777777778 0  1.25 0  L 3.75 0  C 4.09722222222222 0  4.39236111111111 0.265151515151514  4.63541666666667 0.795454545454546  Z " fill-rule="nonzero" fill="#aeaeae" stroke="none" transform="matrix(1 0 0 1 546 53 )" />
  </g>
</svg>