<?xml version="1.0" encoding="utf-8"?>
<svg version="1.1" xmlns:xlink="http://www.w3.org/1999/xlink" width="59px" height="38px" xmlns="http://www.w3.org/2000/svg">
  <g transform="matrix(1 0 0 1 -353 -484 )">
    <path d="M 58.4088176352705 31.0790378006873  C 58.8029392117569 31.5143184421535  59 32.0148911798396  59 32.5807560137457  C 59 33.1466208476518  58.8029392117569 33.6471935853379  58.4088176352705 34.0824742268041  L 55.4529058116233 37.3470790378007  C 55.0587842351369 37.7823596792669  54.6055444221777 38  54.0931863727455 38  C 53.5808283233133 38  53.1275885103541 37.7823596792669  52.7334669338677 37.3470790378007  L 29.5 11.6872852233677  L 23.1785714285714 18.1939393939386  L 6.26653306613226 37.3470790378007  C 5.87241148964597 37.7823596792669  5.41917167668672 38  4.9068136272545 38  C 4.39445557782232 38  3.94121576486307 37.7823596792669  3.54709418837674 37.3470790378007  L 0.591182364729476 34.0824742268041  C 0.197060788243145 33.6471935853379  0 33.1466208476518  0 32.5807560137457  C 0 32.0148911798396  0.197060788243145 31.5143184421535  0.591182364729476 31.0790378006873  L 16.8218154255917 13.1534006581588  L 28.1402805611222 0.652920962199306  C 28.5344021376086 0.217640320733091  28.9876419505678 0  29.5 0  C 30.0123580494322 0  30.4655978623914 0.217640320733091  30.8597194388778 0.652920962199306  L 58.4088176352705 31.0790378006873  Z " fill-rule="nonzero" fill="#afafaf" stroke="none" transform="matrix(1 0 0 1 353 484 )" />
  </g>
</svg>