<?xml version="1.0" encoding="utf-8"?>
<svg version="1.1" xmlns:xlink="http://www.w3.org/1999/xlink" width="27px" height="26px" xmlns="http://www.w3.org/2000/svg">
  <g transform="matrix(1 0 0 1 -2001 -864 )">
    <path d="M 12.1532451923077 2.23066104078762  C 12.3587740384615 2.46225972808251  12.4615384615385 2.73652133145804  13 3.0534458509142  L 13 22.9465541490858  C 12.4615384615385 23.263478668542  12.3587740384615 23.5377402719175  12.1532451923077 23.7693389592124  C 11.9477163461538 24.0009376465073  11.7043269230769 24.1167369901547  11.4230769230769 24.1167369901547  C 11.1418269230769 24.1167369901547  10.8984375 24.0009376465073  10.6929086538462 23.7693389592124  L 5.28966346153846 17.6807313642757  L 1.03846153846154 17.6807313642757  C 0.757211538461539 17.6807313642757  0.513822115384615 17.5649320206282  0.308293269230769 17.3333333333333  C 0.102764423076923 17.1017346460384  0 16.8274730426629  0 16.5105485232068  L 0 9.48945147679325  C 0 9.17252695733708  0.102764423076923 8.89826535396155  0.308293269230769 8.66666666666667  C 0.513822115384615 8.43506797937177  0.757211538461539 8.31926863572433  1.03846153846154 8.31926863572433  L 5.28966346153846 8.31926863572433  L 10.6929086538462 2.23066104078762  C 10.8984375 1.99906235349273  11.1418269230769 1.88326300984529  11.4230769230769 1.88326300984529  C 11.7043269230769 1.88326300984529  11.9477163461538 1.99906235349273  12.1532451923077 2.23066104078762  Z M 18.0027043269231 10.4036568213783  C 18.4624399038462 11.2081575246132  18.6923076923077 12.0736052508204  18.6923076923077 13  C 18.6923076923077 13.9263947491796  18.4624399038462 14.7887951242382  18.0027043269231 15.5872011251758  C 17.54296875 16.3856071261134  16.9344951923077 16.9554617909048  16.1772836538462 17.2967651195499  C 16.0691105769231 17.3577121425223  15.9338942307692 17.3881856540084  15.7716346153846 17.3881856540084  C 15.4903846153846 17.3881856540084  15.2469951923077 17.2754336615096  15.0414663461538 17.049929676512  C 14.8359375 16.8244256915143  14.7331730769231 16.5471167369902  14.7331730769231 16.2180028129395  C 14.7331730769231 15.9620253164557  14.7980769230769 15.7456633849039  14.9278846153846 15.5689170182841  C 15.0576923076923 15.3921706516643  15.2145432692308 15.2398030942335  15.3984375 15.1118143459916  C 15.5823317307692 14.9838255977496  15.7662259615385 14.8436474449133  15.9501201923077 14.6912798874824  C 16.1340144230769 14.5389123300516  16.2908653846154 14.3195030473511  16.4206730769231 14.0330520393812  C 16.5504807692308 13.7466010314112  16.6153846153846 13.4022503516174  16.6153846153846 13  C 16.6153846153846 12.5977496483826  16.5504807692308 12.2533989685888  16.4206730769231 11.9669479606188  C 16.2908653846154 11.6804969526489  16.1340144230769 11.4610876699484  15.9501201923077 11.3087201125176  C 15.7662259615385 11.1563525550867  15.5823317307692 11.0161744022504  15.3984375 10.8881856540084  C 15.2145432692308 10.7601969057665  15.0576923076923 10.6078293483357  14.9278846153846 10.4310829817159  C 14.7980769230769 10.2543366150961  14.7331730769231 10.0379746835443  14.7331730769231 9.78199718706048  C 14.7331730769231 9.45288326300984  14.8359375 9.1755743084857  15.0414663461538 8.95007032348805  C 15.2469951923077 8.72456633849039  15.4903846153846 8.61181434599156  15.7716346153846 8.61181434599156  C 15.9338942307692 8.61181434599156  16.0691105769231 8.64228785747773  16.1772836538462 8.70323488045007  C 16.9344951923077 9.03234880450071  17.54296875 9.59915611814346  18.0027043269231 10.4036568213783  Z M 21.4669471153846 7.83473980309423  C 22.3864182692308 9.41326769807782  22.8461538461538 11.1350210970464  22.8461538461538 13  C 22.8461538461538 14.8649789029536  22.3864182692308 16.5867323019222  21.4669471153846 18.1652601969058  C 20.5474759615385 19.7437880918894  19.3305288461538 20.892639474918  17.8161057692308 21.6118143459916  C 17.6754807692308 21.6727613689639  17.5402644230769 21.7032348804501  17.4104567307692 21.7032348804501  C 17.1183894230769 21.7032348804501  16.8695913461538 21.5874355368026  16.6640625 21.3558368495077  C 16.4585336538462 21.1242381622128  16.3557692307692 20.8499765588373  16.3557692307692 20.5330520393812  C 16.3557692307692 20.0576652601969  16.5667067307692 19.6980778246601  16.9885817307692 19.4542897327707  C 17.5943509615385 19.1007969995312  18.0054086538462 18.8326300984529  18.2217548076923 18.6497890295359  C 19.0222355769231 17.9915611814346  19.6469350961538 17.1657290201594  20.0958533653846 16.1722925457103  C 20.5447716346154 15.1788560712611  20.7692307692308 14.121425222691  20.7692307692308 13  C 20.7692307692308 11.878574777309  20.5447716346154 10.8211439287389  20.0958533653846 9.82770745428973  C 19.6469350961538 8.8342709798406  19.0222355769231 8.0084388185654  18.2217548076923 7.35021097046413  C 18.0054086538462 7.16736990154712  17.5943509615385 6.89920300046882  16.9885817307692 6.54571026722925  C 16.5667067307692 6.30192217533989  16.3557692307692 5.9423347398031  16.3557692307692 5.46694796061885  C 16.3557692307692 5.15002344116268  16.4585336538462 4.87576183778715  16.6640625 4.64416315049226  C 16.8695913461538 4.41256446319737  17.1129807692308 4.29676511954993  17.3942307692308 4.29676511954993  C 17.5348557692308 4.29676511954993  17.6754807692308 4.3272386310361  17.8161057692308 4.38818565400844  C 19.3305288461538 5.10736052508204  20.5474759615385 6.25621190811064  21.4669471153846 7.83473980309423  Z M 24.9393028846154 5.27496483825598  C 26.3131009615385 7.62142522269104  27 10.1964369432724  27 13  C 27 15.8035630567276  26.3131009615385 18.3785747773089  24.9393028846154 20.725035161744  C 23.5655048076923 23.0714955461791  21.7373798076923 24.7993436474449  19.4549278846154 25.9085794655415  C 19.3143028846154 25.9695264885138  19.1736778846154 26  19.0330528846154 26  C 18.7518028846154 26  18.5084134615385 25.8842006563526  18.3028846153846 25.6526019690577  C 18.0973557692308 25.4210032817628  17.9945913461538 25.1467416783872  17.9945913461538 24.8298171589311  C 17.9945913461538 24.3909985935302  18.2055288461538 24.0314111579934  18.6274038461538 23.7510548523207  C 18.703125 23.7022972339428  18.8248197115385 23.6383028598218  18.9924879807692 23.5590717299578  C 19.16015625 23.4798406000938  19.2818509615385 23.4158462259728  19.3575721153846 23.3670886075949  C 19.8551682692308 23.0623534927332  20.2986778846154 22.7515236755743  20.6881009615385 22.4345991561181  C 22.0186298076923 21.3253633380216  23.0570913461538 19.9418659165495  23.8034855769231 18.2841068917018  C 24.5498798076923 16.6263478668542  24.9230769230769 14.8649789029536  24.9230769230769 13  C 24.9230769230769 11.1350210970464  24.5498798076923 9.37365213314581  23.8034855769231 7.71589310829817  C 23.0570913461538 6.05813408345054  22.0186298076923 4.67463666197843  20.6881009615385 3.56540084388186  C 20.2986778846154 3.24847632442569  19.8551682692308 2.93764650726676  19.3575721153846 2.63291139240506  C 19.2818509615385 2.58415377402719  19.16015625 2.52015939990623  18.9924879807692 2.44092827004219  C 18.8248197115385 2.36169714017815  18.703125 2.29770276605719  18.6274038461538 2.24894514767933  C 18.2055288461538 1.96858884200656  17.9945913461538 1.60900140646976  17.9945913461538 1.17018284106892  C 17.9945913461538 0.853258321612749  18.0973557692308 0.578996718237222  18.3028846153846 0.347398030942334  C 18.5084134615385 0.115799343647444  18.7518028846154 0  19.0330528846154 0  C 19.1736778846154 0  19.3143028846154 0.0304735114861681  19.4549278846154 0.09142053445851  C 21.7373798076923 1.20065635255508  23.5655048076923 2.92850445382091  24.9393028846154 5.27496483825598  Z " fill-rule="nonzero" fill="#000000" stroke="none" transform="matrix(1 0 0 1 2001 864 )" />
  </g>
</svg>