<?xml version="1.0" encoding="utf-8"?>
<svg version="1.1" xmlns:xlink="http://www.w3.org/1999/xlink" width="119px" height="157px" xmlns="http://www.w3.org/2000/svg">
  <g transform="matrix(1 0 0 1 -1293 -145 )">
    <path d="M 81.17333984375 36.5924479166667  C 84.07861328125 39.1818576388889  85.53125 42.2482638888889  85.53125 45.7916666666667  C 85.53125 46.6775173611111  85.1632486979167 47.4441189236111  84.42724609375 48.0914713541667  C 83.6912434895833 48.7388237847222  82.8196614583333 49.0625  81.8125 49.0625  C 80.8053385416667 49.0625  79.9337565104167 48.7388237847222  79.19775390625 48.0914713541667  C 78.4617513020833 47.4441189236111  78.09375 46.6775173611111  78.09375 45.7916666666667  C 78.09375 42.6571180555556  76.001953125 40.2380642361111  71.818359375 38.5345052083333  C 67.634765625 36.8309461805556  63.5286458333333 35.9791666666667  59.5 35.9791666666667  C 58.4928385416667 35.9791666666667  57.6212565104167 35.6554904513889  56.88525390625 35.0081380208333  C 56.1492513020833 34.3607855902778  55.78125 33.5941840277778  55.78125 32.7083333333333  C 55.78125 31.8224826388889  56.1492513020833 31.0558810763889  56.88525390625 30.4085286458333  C 57.6212565104167 29.7611762152778  58.4928385416667 29.4375  59.5 29.4375  C 63.3736979166667 29.4375  67.22802734375 29.9826388888889  71.06298828125 31.0729166666667  C 74.89794921875 32.1631944444444  78.26806640625 34.0030381944444  81.17333984375 36.5924479166667  Z M 96.22265625 64.1901041666667  C 101.490885416667 58.8068576388889  104.125 52.6740451388889  104.125 45.7916666666667  C 104.125 40.8854166666667  102.78857421875 36.3198784722222  100.11572265625 32.0950520833333  C 97.44287109375 27.8702256944444  93.95654296875 24.4120008680555  89.65673828125 21.7203776041667  C 85.35693359375 19.0287543402778  80.59228515625 16.9163411458333  75.36279296875 15.3831380208333  C 70.13330078125 13.8499348958333  64.845703125 13.0833333333333  59.5 13.0833333333333  C 54.154296875 13.0833333333333  48.86669921875 13.8499348958333  43.63720703125 15.3831380208333  C 38.40771484375 16.9163411458333  33.64306640625 19.0287543402778  29.34326171875 21.7203776041667  C 25.04345703125 24.4120008680555  21.55712890625 27.8702256944444  18.88427734375 32.0950520833333  C 16.21142578125 36.3198784722222  14.875 40.8854166666667  14.875 45.7916666666667  C 14.875 52.6740451388889  17.5091145833333 58.8068576388889  22.77734375 64.1901041666667  C 23.5520833333333 64.9396701388889  24.7335611979167 66.0640190972222  26.32177734375 67.5631510416667  C 27.9099934895833 69.0622829861111  29.0914713541667 70.1866319444444  29.8662109375 70.9361979166667  C 39.7828776041667 81.3619791666667  45.2447916666667 91.5151909722222  46.251953125 101  L 72.748046875 101  C 73.7552083333333 91.5151909722222  79.2171223958333 81.3619791666667  89.1337890625 70.9361979166667  C 89.9085286458333 70.1866319444444  91.0900065104167 69.0622829861111  92.67822265625 67.5631510416667  C 94.2664388020833 66.0640190972222  95.4479166666667 64.9396701388889  96.22265625 64.1901041666667  Z M 113.82861328125 26.9332682291667  C 117.276204427083 32.7594401041667  119 39.0455729166667  119 45.7916666666667  C 119 56.3537326388889  115.010091145833 65.4848090277778  107.0302734375 73.1848958333333  C 103.5439453125 76.5238715277778  100.658040364583 79.4880642361111  98.37255859375 82.0774739583333  C 96.0870768229167 84.6668836805555  93.7822265625 87.9206814236111  91.4580078125 91.8388671875  C 89.1337890625 95.7570529513889  87.8167317708333 99.4197048611111  87.5068359375 102.826822916667  C 91.1481119791667 104.734809027778  92.96875 107.528645833333  92.96875 111.208333333333  C 92.96875 113.729600694444  92.0003255208333 115.91015625  90.0634765625 117.75  C 92.0003255208333 119.58984375  92.96875 121.770399305556  92.96875 124.291666666667  C 92.96875 127.835069444444  91.2255859375 130.594835069444  87.7392578125 132.570963541667  C 88.7464192708333 134.138237847222  89.25 135.739583333333  89.25 137.375  C 89.25 140.509548611111  88.02978515625 142.928602430556  85.58935546875 144.632161458333  C 83.14892578125 146.335720486111  80.1468098958333 147.1875  76.5830078125 147.1875  C 75.0335286458333 150.185763888889  72.7093098958333 152.570746527778  69.6103515625 154.342447916667  C 66.5113932291667 156.114149305556  63.1412760416667 157  59.5 157  C 55.8587239583333 157  52.4886067708333 156.114149305556  49.3896484375 154.342447916667  C 46.2906901041667 152.570746527778  43.9664713541667 150.185763888889  42.4169921875 147.1875  C 38.8531901041667 147.1875  35.85107421875 146.335720486111  33.41064453125 144.632161458333  C 30.97021484375 142.928602430556  29.75 140.509548611111  29.75 137.375  C 29.75 135.739583333333  30.2535807291667 134.138237847222  31.2607421875 132.570963541667  C 27.7744140625 130.594835069444  26.03125 127.835069444444  26.03125 124.291666666667  C 26.03125 121.770399305556  26.9996744791667 119.58984375  28.9365234375 117.75  C 26.9996744791667 115.91015625  26.03125 113.729600694444  26.03125 111.208333333333  C 26.03125 107.528645833333  27.8518880208333 104.734809027778  31.4931640625 102.826822916667  C 31.1832682291667 99.4197048611111  29.8662109375 95.7570529513889  27.5419921875 91.8388671875  C 25.2177734375 87.9206814236111  22.9129231770833 84.6668836805555  20.62744140625 82.0774739583333  C 18.3419596354167 79.4880642361111  15.4560546875 76.5238715277778  11.9697265625 73.1848958333333  C 3.98990885416667 65.4848090277778  0 56.3537326388889  0 45.7916666666667  C 0 39.0455729166667  1.72379557291667 32.7594401041667  5.17138671875 26.9332682291667  C 8.61897786458333 21.1070963541667  13.1512044270833 16.2689887152778  18.76806640625 12.4189453125  C 24.3849283854167 8.56890190972221  30.73779296875 5.53656684027776  37.82666015625 3.32194010416666  C 44.91552734375 1.10731336805555  52.1399739583333 0  59.5 0  C 66.8600260416667 0  74.08447265625 1.10731336805555  81.17333984375 3.32194010416666  C 88.26220703125 5.53656684027776  94.6150716145833 8.56890190972221  100.23193359375 12.4189453125  C 105.848795572917 16.2689887152778  110.381022135417 21.1070963541667  113.82861328125 26.9332682291667  Z " fill-rule="nonzero" fill="#000000" stroke="none" fill-opacity="0.247058823529412" transform="matrix(1 0 0 1 1293 145 )" />
  </g>
</svg>